<svg xmlns="http://www.w3.org/2000/svg" viewBox="0 0 64 64" width="64" height="64">
  <circle cx="32" cy="32" r="32" fill="#f7931a" />
  <path fill="#fff" d="M44.3 28.4c.6-4-2.5-6.2-6.7-7.6l1.4-5.5-3.4-.8-1.3 5.3c-.9-.2-1.8-.4-2.7-.6l1.3-5.4-3.3-.8-1.4 5.5c-.7-.2-1.5-.3-2.2-.5v-.02l-4.6-1.2-.9 3.6s2.5.6 2.4.6c1.4.3 1.6 1.2 1.6 2l-1.6 6.3c.1 0 .2.1.4.1l-.4-.1-2.2 8.8c-.2.4-.6 1-1.6.8 0 .1-2.4-.6-2.4-.6l-1.7 3.9 4.3 1.1c.8.2 1.6.4 2.4.6l-1.4 5.6 3.3.8 1.4-5.5c.9.2 1.8.5 2.7.7l-1.4 5.5 3.4.8 1.4-5.6c5.7 1.1 10 .7 11.8-4.5 1.5-4.2-.1-6.6-3.1-8.2 2.2-.5 3.8-1.9 4.3-4.9zm-7.7 10.9c-1.1 4.2-8.2 1.9-10.5 1.4l1.9-7.4c2.3.6 9.7 1.7 8.6 6zm1.1-11c-1 3.8-6.9 1.9-8.8 1.4l1.7-6.7c1.9.5 8.1 1.4 7.1 5.3z"/>
</svg>
